# xmcd
#
# Track frame offsets: 
#        150
#        26583
#        47436
#        66476
#        80754
#        99578
#        113973
#        138922
#        152253
#        173022
#        188593
#        218202
#
# Disc length: 3220 seconds
#
# Revision: 0
# Processed by: cddbd v1.5.2PL0 Copyright (c) Steve Scherf et al.
# Submitted via: ExactAudioCopy v0.99pb5
#
DISCID=9a0c920c
DTITLE=General Johnson - The Best Of The Arista Years
DYEAR=2011
DGENRE=Soul
TTITLE0=Temperature Risin'
TTITLE1=Don't Walk Away
TTITLE2=We The People
TTITLE3=Lies
TTITLE4=All In The Family
TTITLE5=Only Love Cand Mend A Broken Heart
TTITLE6=Patches
TTITLE7=Keep Keepin' On
TTITLE8=Don't Walk Away (Special Disco Version)
TTITLE9=Ready Willing And Able
TTITLE10=Let's Fool Around (12'' Version)
TTITLE11=Can't Nobody Love Me Like You Do (12'' Disco Version)
EXTD=
EXTT0=
EXTT1=
EXTT2=
EXTT3=
EXTT4=
EXTT5=
EXTT6=
EXTT7=
EXTT8=
EXTT9=
EXTT10=
EXTT11=
PLAYORDER=
